{"title":"The.Ministers-AC3-5,1-DVDRip[Eng]2009","uid":5280235,"size":1472893958,"categoryP":"video","categoryS":"movies","magnet":"?xt=urn:btih:9f9736cf46b4a89906991b0946d1a8ebe5bfc02c&amp;dn=The.Ministers-AC3-5%2C1-DVDRip%5BEng%5D2009&amp;tr=udp%3A%2F%2Ftracker.openbittorrent.com%3A80&amp;tr=udp%3A%2F%2Fopen.demonii.com%3A1337&amp;tr=udp%3A%2F%2Ftracker.coppersurfer.tk%3A6969&amp;tr=udp%3A%2F%2Fexodus.desync.com%3A6969","seeders":1,"leechers":0,"uploader":"FatFreddy31","files":-1,"time":1263520334,"description":" &lt;a href=&quot;http://www.imdb.com/title/tt0880570/&quot; rel=&quot;nofollow&quot; target=&quot;_NEW&quot;&gt;http://www.imdb.com/title/tt0880570/&lt;/a&gt;\n\nUser Rating:4.7/10 - 294 votes\n\nCrime\n\nDirector:Franc. Reyes\n\nCast:John Leguizamo/Florencia Lozano/Diane Venora, and others.\n\nPlot:\nA NYPD detective attempts to avenge the death of her father, but unwittingly becomes involved with one of his killers.\n\nInfo:\n\nCovers included.\n\nGeneral\nComplete name                    : The.Ministers-AC3-5,1-DVDRip[Eng]2009.avi\nFormat                           : AVI\nFormat/Info                      : Audio Video Interleave\nFile size                        : 1.37 GiB\nDuration                         : 1h 25mn\nOverall bit rate                 : 2 288 Kbps\nWriting application              : VirtualDubMod 1.5.10.2 (build 2540/release)\nWriting library                  : VirtualDubMod build 2540/release\n\nVideo\nID                               : 0\nFormat                           : MPEG-4 Visual\nFormat profile                   : AdvancedSimple@L5\nFormat settings, BVOP            : Yes\nFormat settings, QPel            : No\nFormat settings, GMC             : No warppoints\nFormat settings, Matrix          : Default (MPEG)\nCodec ID                         : XVID\nCodec ID/Hint                    : XviD\nDuration                         : 1h 25mn\nBit rate                         : 1 830 Kbps\nWidth                            : 720 pixels\nHeight                           : 304 pixels\nDisplay aspect ratio             : 2.35:1\nFrame rate                       : 25.000 fps\nResolution                       : 24 bits\nColorimetry                      : 4:2:0\nScan type                        : Progressive\nBits/(Pixel*Frame)               : 0.334\nStream size                      : 1.10 GiB (80%)\nWriting library                  : XviD 1.2.1 (UTC 2008-12-04)\n\nAudio\nID                               : 1\nFormat                           : AC-3\nFormat/Info                      : Audio Coding 3\nCodec ID                         : 2000\nDuration                         : 1h 25mn\nBit rate mode                    : Constant\nBit rate                         : 448 Kbps\nChannel(s)                       : 6 channels\nChannel positions                : Front: L C R, Surround: L R, LFE\nSampling rate                    : 48.0 KHz\nStream size                      : 275 MiB (20%)\nAlignment                        : Split accross interleaves\nInterleave, duration             : 40 ms (1.00 video frame)\nInterleave, preload duration     : 500 ms\n\nEnjoy...","torrent":{"xt":"urn:btih:9f9736cf46b4a89906991b0946d1a8ebe5bfc02c","amp;dn":"The.Ministers-AC3-5%2C1-DVDRip%5BEng%5D2009","amp;tr":["udp%3A%2F%2Ftracker.openbittorrent.com%3A80","udp%3A%2F%2Fopen.demonii.com%3A1337","udp%3A%2F%2Ftracker.coppersurfer.tk%3A6969","udp%3A%2F%2Fexodus.desync.com%3A6969"],"infoHash":"9f9736cf46b4a89906991b0946d1a8ebe5bfc02c","infoHashBuffer":{"type":"Buffer","data":[159,151,54,207,70,180,168,153,6,153,27,9,70,209,168,235,229,191,192,44]},"announce":[],"urlList":[]}}